<?xml version="1.0" encoding="iso-8859-1"?>
<!-- Uploaded to: SVG Repo, www.svgrepo.com, Generator: SVG Repo Mixer Tools -->
<svg fill="#000000" height="800px" width="800px" version="1.1" id="Layer_1" xmlns="http://www.w3.org/2000/svg" xmlns:xlink="http://www.w3.org/1999/xlink" 
	 viewBox="0 0 511.509 511.509" xml:space="preserve">
<g>
	<g>
		<g>
			<path d="M293.722,178.538h-13.747c-0.811,0.256-1.647,0.418-2.526,0.418h-59.904c-0.179,0.495-0.247,1.015-0.521,1.476
				l-35.9,59.853l-9.293,15.471l22.912,38.178l23.168,38.622h16.137h59.904c0.179-0.495,0.247-1.015,0.521-1.476l35.9-59.853
				l9.293-15.471l-22.912-38.178c-0.265-0.435-0.29-0.947-0.469-1.425L293.722,178.538z M221.615,289.889
				c-4.71,0-8.533-3.823-8.533-8.533s3.823-8.533,8.533-8.533c4.71,0,8.533,3.823,8.533,8.533S226.325,289.889,221.615,289.889z
				 M255.748,221.623c-18.825,0-34.133,15.309-34.133,34.133c0,4.719-3.814,8.533-8.533,8.533c-4.719,0-8.533-3.814-8.533-8.533
				c0-28.237,22.963-51.2,51.2-51.2c4.719,0,8.533,3.814,8.533,8.533C264.282,217.808,260.467,221.623,255.748,221.623z"/>
			<path d="M14.183,254.971c43.418,39.663,103.996,53.914,160.307,38.383l-19.925-33.203c-1.621-2.705-1.621-6.084,0-8.789
				l7.356-12.254c-55.031-31.881-90.59-90.078-93.483-153.967v-3.635C28.204,124.727,2.714,181.806,0.026,244.722l13.38,9.626
				C13.671,254.536,13.936,254.749,14.183,254.971z"/>
			<path d="M170.743,224.401l29.807-49.681c-15.326-61.312,0.768-125.372,43.383-172.049L246.153,0
				C184.602,2.287,128.546,26.368,85.495,64.794v19.959C88.124,142.558,120.585,195.447,170.743,224.401z"/>
			<path d="M296.29,349.623h-57.25c-31.855,54.921-90.368,90.573-153.907,93.44h-3.635c42.923,39.953,99.507,65.399,161.903,68.378
				l11.255-13.756C291.665,457.134,306.701,402.674,296.29,349.623z"/>
			<path d="M215.206,161.892h57.25c31.855-54.921,90.368-90.581,153.907-93.44h3.635c-42.88-39.919-99.396-65.357-161.732-68.378
				l-11.469,13.807C219.823,54.38,204.796,108.84,215.206,161.892z"/>
			<path d="M336.986,218.126l19.942,33.237c1.63,2.705,1.63,6.084,0,8.781l-7.356,12.262c55.031,31.881,90.59,90.078,93.483,153.967
				v3.635c39.859-42.82,65.289-99.234,68.369-161.451l-13.884-11.827C453.892,216.889,393.323,202.579,336.986,218.126z"/>
			<path d="M218.866,349.624h-5.786c-2.995,0-5.777-1.579-7.313-4.147l-22.178-36.958c-63.07,19.115-131.635,3.84-180.548-40.602
				l-3.038-2.193C2.367,327.13,26.44,383.049,64.78,426.006h19.968C138.764,423.566,188.991,394.646,218.866,349.624z"/>
			<path d="M292.916,161.473h5.641c3.004,0,5.777,1.579,7.313,4.139l22.417,37.376c63.113-18.987,131.686-3.678,180.548,40.951
				l2.671,2.278c-2.27-61.576-26.359-117.649-64.794-160.708h-19.968C372.899,87.941,322.825,116.69,292.916,161.473z"/>
			<path d="M340.751,287.108l-29.798,49.681c15.317,61.321-0.768,125.372-43.383,172.049l-2.193,2.671
				c61.542-2.287,117.581-26.377,160.623-64.785v-19.968C423.379,368.952,390.909,316.07,340.751,287.108z"/>
		</g>
	</g>
</g>
</svg>